<svg width="16" height="16" viewBox="0 0 16 16" fill="none" xmlns="http://www.w3.org/2000/svg">
<g clip-path="url(#clip0)">
<path d="M10.6064 8.08208L16.0004 11.4921V4.52808L10.6064 8.08208Z" fill="white"/>
<path d="M0 4.52808V11.4921L5.394 8.08208L0 4.52808Z" fill="white"/>
<path d="M15.0003 2.5H1.00027C0.501273 2.5 0.105273 2.872 0.0302734 3.351L8.00027 8.602L15.9703 3.351C15.8953 2.872 15.4993 2.5 15.0003 2.5Z" fill="white"/>
<path d="M9.68925 8.68606L8.27425 9.61806C8.19025 9.67306 8.09525 9.70006 7.99925 9.70006C7.90325 9.70006 7.80825 9.67306 7.72425 9.61806L6.30925 8.68506L0.03125 12.6561C0.10825 13.1311 0.50225 13.5001 0.99925 13.5001H14.9993C15.4963 13.5001 15.8903 13.1311 15.9673 12.6561L9.68925 8.68606Z" fill="white"/>
</g>
<defs>
<clipPath id="clip0">
<rect width="16" height="16" fill="white"/>
</clipPath>
</defs>
</svg>
