<svg width="22" height="22" viewBox="0 0 22 22" fill="none" xmlns="http://www.w3.org/2000/svg">
<path d="M18.7782 3.2218C16.7005 1.14421 13.9382 0 11 0C8.0618 0 5.29947 1.14421 3.2218 3.2218C1.14421 5.29942 0 8.0618 0 11C0 13.9382 1.14421 16.7006 3.2218 18.7782C5.29947 20.8558 8.0618 22 11 22C13.9382 22 16.7005 20.8558 18.7782 18.7782C20.8558 16.7006 22 13.9382 22 11C22 8.0618 20.8558 5.29942 18.7782 3.2218ZM8.91382 1.51542C8.54485 1.87434 8.14606 2.30205 7.74705 2.79989C7.05706 3.66085 6.48252 4.58752 6.03316 5.562H2.95831C4.33172 3.53753 6.44888 2.05717 8.91382 1.51542ZM2.22127 6.85107H5.52209C5.14641 7.97324 4.92787 9.14702 4.87081 10.3555H1.31098C1.39309 9.10899 1.71114 7.9261 2.22127 6.85107ZM1.31098 11.6445H4.87081C4.92787 12.853 5.14637 14.0268 5.52209 15.1489H2.22127C1.71114 14.0739 1.39309 12.891 1.31098 11.6445ZM2.95831 16.438H6.03316C6.48252 17.4124 7.05706 18.3391 7.74705 19.2001C8.14602 19.6979 8.54481 20.1257 8.91382 20.4846C6.44888 19.9428 4.33172 18.4625 2.95831 16.438ZM10.3555 20.0581C9.89643 19.6623 9.32568 19.1086 8.75295 18.394C8.25206 17.769 7.82311 17.1163 7.46573 16.438H10.3555V20.0581ZM10.3555 15.1489H6.88437C6.46538 14.0393 6.22407 12.8689 6.1615 11.6445H10.3555V15.1489ZM10.3555 10.3555H6.1615C6.22411 9.13129 6.46572 7.96095 6.88488 6.85107H10.3555V10.3555ZM10.3555 5.562H7.46573C7.81576 4.89762 8.23462 4.25786 8.72227 3.64444C9.3023 2.91487 9.88655 2.34798 10.3555 1.94373V5.562ZM20.689 10.3555H17.1292C17.0721 9.14702 16.8536 7.97324 16.4779 6.85107H19.7787C20.2889 7.9261 20.607 9.10899 20.689 10.3555ZM19.0417 5.562H15.9668C15.5175 4.58756 14.9429 3.66085 14.2529 2.79989C13.854 2.30205 13.4552 1.87434 13.0862 1.51542C15.5512 2.05717 17.6683 3.53753 19.0417 5.562ZM11.6445 1.94193C12.1036 2.33771 12.6743 2.89137 13.2471 3.60602C13.7479 4.23105 14.1769 4.8837 14.5343 5.562H11.6445V1.94193ZM11.6445 6.85107H15.1156C15.5347 7.96073 15.7759 9.13112 15.8385 10.3555H11.6445V6.85107ZM11.6445 11.6445H15.8385C15.7758 12.8687 15.5342 14.0391 15.1151 15.1489H11.6445V11.6445ZM11.6445 20.0562V16.438H14.5343C14.1842 17.1024 13.7654 17.7421 13.2777 18.3555C12.6977 19.0851 12.1135 19.6519 11.6445 20.0562ZM13.0862 20.4846C13.4552 20.1257 13.854 19.6979 14.253 19.2001C14.943 18.3391 15.5175 17.4125 15.9669 16.438H19.0417C17.6683 18.4625 15.5512 19.9428 13.0862 20.4846ZM19.7787 15.1489H16.4779C16.8536 14.0268 17.0721 12.853 17.1292 11.6445H20.689C20.607 12.891 20.2889 14.0739 19.7787 15.1489Z" fill="white" fill-opacity="0.7"/>
</svg>
