<svg width="32" height="32" viewBox="0 0 32 32" fill="none" xmlns="http://www.w3.org/2000/svg">
<g clip-path="url(#clip0)">
<path d="M31.7148 23.1561C31.6288 23.0121 31.0967 21.856 28.5365 19.4798C25.8563 16.9916 26.2164 17.3957 29.4446 13.0934C31.4108 10.4732 32.1968 8.87305 31.9508 8.189C31.7168 7.53695 30.2707 7.70896 30.2707 7.70896L25.4623 7.73696C25.4623 7.73696 25.1063 7.68896 24.8403 7.84697C24.5822 8.00298 24.4162 8.36301 24.4162 8.36301C24.4162 8.36301 23.6542 10.3912 22.6381 12.1153C20.496 15.7536 19.6379 15.9456 19.2879 15.7196C18.4738 15.1935 18.6778 13.6034 18.6778 12.4753C18.6778 8.94905 19.2119 7.47894 17.6357 7.09891C17.1117 6.9729 16.7277 6.8889 15.3896 6.8749C13.6734 6.8569 12.2193 6.8809 11.3973 7.28293C10.8492 7.55095 10.4272 8.14899 10.6852 8.183C11.0033 8.225 11.7233 8.37701 12.1053 8.89705C12.5994 9.5671 12.5814 11.0752 12.5814 11.0752C12.5814 11.0752 12.8654 15.2255 11.9193 15.7416C11.2693 16.0956 10.3792 15.3735 8.46907 12.0713C7.49099 10.3812 6.75094 8.51102 6.75094 8.51102C6.75094 8.51102 6.60893 8.16299 6.35491 7.97698C6.04689 7.75096 5.61486 7.67896 5.61486 7.67896L1.04252 7.70696C1.04252 7.70696 0.356473 7.72696 0.104454 8.02498C-0.119562 8.291 0.0864528 8.83904 0.0864528 8.83904C0.0864528 8.83904 3.66672 17.2137 7.71901 21.436C11.4373 25.3063 15.6576 25.0522 15.6576 25.0522H17.5697C17.5697 25.0522 18.1478 24.9882 18.4418 24.6702C18.7138 24.3782 18.7038 23.8302 18.7038 23.8302C18.7038 23.8302 18.6658 21.264 19.8579 20.8859C21.032 20.5139 22.5401 23.3661 24.1382 24.4642C25.3463 25.2943 26.2644 25.1123 26.2644 25.1123L30.5387 25.0522C30.5387 25.0522 32.7748 24.9142 31.7148 23.1561Z" fill="white"/>
</g>
<defs>
<clipPath id="clip0">
<rect width="32" height="32" fill="white"/>
</clipPath>
</defs>
</svg>
