<svg width="32" height="32" viewBox="0 0 32 32" fill="none" xmlns="http://www.w3.org/2000/svg">
<path d="M30.64 7.12C29.772 5.576 28.83 5.292 26.912 5.184C24.996 5.054 20.178 5 16.004 5C11.822 5 7.002 5.054 5.088 5.182C3.174 5.292 2.23 5.574 1.354 7.12C0.46 8.662 0 11.318 0 15.994C0 15.998 0 16 0 16C0 16.004 0 16.006 0 16.006V16.01C0 20.666 0.46 23.342 1.354 24.868C2.23 26.412 3.172 26.692 5.086 26.822C7.002 26.934 11.822 27 16.004 27C20.178 27 24.996 26.934 26.914 26.824C28.832 26.694 29.774 26.414 30.642 24.87C31.544 23.344 32 20.668 32 16.012C32 16.012 32 16.006 32 16.002C32 16.002 32 15.998 32 15.996C32 11.318 31.544 8.662 30.64 7.12ZM12 22V10L22 16L12 22Z" fill="white"/>
</svg>
